<svg width="21" height="21" viewBox="0 0 21 21" fill="none" xmlns="http://www.w3.org/2000/svg">
<path d="M15.1826 0.500361H17.8526C18.4186 0.490352 18.9685 0.688497 19.3981 1.05718C19.8276 1.42586 20.1068 1.93942 20.1826 2.50036V9.50036C20.1068 10.0613 19.8276 10.5749 19.3981 10.9435C18.9685 11.3122 18.4186 11.5104 17.8526 11.5004H15.1826M8.18265 13.5004V17.5004C8.18265 18.296 8.49872 19.0591 9.06133 19.6217C9.62394 20.1843 10.387 20.5004 11.1826 20.5004L15.1826 11.5004V0.500361H3.90265C3.42032 0.494909 2.95227 0.663956 2.58474 0.976355C2.21721 1.28875 1.97497 1.72346 1.90265 2.20036L0.522648 11.2004C0.47914 11.487 0.498473 11.7797 0.579308 12.0581C0.660143 12.3365 0.800545 12.5941 0.990789 12.8128C1.18103 13.0316 1.41657 13.2064 1.68108 13.3251C1.94558 13.4439 2.23274 13.5036 2.52265 13.5004H8.18265Z" stroke="black" stroke-linecap="round" stroke-linejoin="round"/>
</svg>
